<?xml version="1.0" encoding="UTF-8" standalone="no"?>
<!DOCTYPE svg PUBLIC "-//W3C//DTD SVG 1.1//EN"
 "http://www.w3.org/Graphics/SVG/1.1/DTD/svg11.dtd">
<!-- Generated by graphviz version 7.1.0 (20230121.1956)
 -->
<!-- Pages: 1 -->
<svg width="351pt" height="417pt"
 viewBox="0.00 0.00 351.00 417.00" xmlns="http://www.w3.org/2000/svg" xmlns:xlink="http://www.w3.org/1999/xlink">
<g id="graph0" class="graph" transform="scale(1 1) rotate(0) translate(4 413)">
<polygon fill="white" stroke="none" points="-4,4 -4,-413 347,-413 347,4 -4,4"/>
<!-- 4350657616 -->
<g id="node1" class="node">
<title>4350657616</title>
<polygon fill="#caff70" stroke="black" points="205,-31 146,-31 146,0 205,0 205,-31"/>
<text text-anchor="middle" x="175.5" y="-7" font-family="monospace" font-size="10.00"> (1, 1)</text>
</g>
<!-- 6301908464 -->
<g id="node2" class="node">
<title>6301908464</title>
<polygon fill="lightgrey" stroke="black" points="226,-86 125,-86 125,-67 226,-67 226,-86"/>
<text text-anchor="middle" x="175.5" y="-74" font-family="monospace" font-size="10.00">AddmmBackward0</text>
</g>
<!-- 6301908464&#45;&gt;4350657616 -->
<g id="edge13" class="edge">
<title>6301908464&#45;&gt;4350657616</title>
<path fill="none" stroke="black" d="M175.5,-66.54C175.5,-60.07 175.5,-50.98 175.5,-42.32"/>
<polygon fill="black" stroke="black" points="179,-42.58 175.5,-32.58 172,-42.58 179,-42.58"/>
</g>
<!-- 6302057904 -->
<g id="node3" class="node">
<title>6302057904</title>
<polygon fill="lightgrey" stroke="black" points="101,-141 0,-141 0,-122 101,-122 101,-141"/>
<text text-anchor="middle" x="50.5" y="-129" font-family="monospace" font-size="10.00">AccumulateGrad</text>
</g>
<!-- 6302057904&#45;&gt;6301908464 -->
<g id="edge1" class="edge">
<title>6302057904&#45;&gt;6301908464</title>
<path fill="none" stroke="black" d="M71.7,-121.51C91.58,-113.08 121.53,-100.38 144.16,-90.79"/>
<polygon fill="black" stroke="black" points="145.37,-94.07 153.22,-86.95 142.64,-87.63 145.37,-94.07"/>
</g>
<!-- 4600360736 -->
<g id="node4" class="node">
<title>4600360736</title>
<polygon fill="lightblue" stroke="black" points="77.5,-208 23.5,-208 23.5,-177 77.5,-177 77.5,-208"/>
<text text-anchor="middle" x="50.5" y="-184" font-family="monospace" font-size="10.00"> (1)</text>
</g>
<!-- 4600360736&#45;&gt;6302057904 -->
<g id="edge2" class="edge">
<title>4600360736&#45;&gt;6302057904</title>
<path fill="none" stroke="black" d="M50.5,-176.61C50.5,-169.35 50.5,-160.51 50.5,-152.66"/>
<polygon fill="black" stroke="black" points="54,-152.67 50.5,-142.67 47,-152.67 54,-152.67"/>
</g>
<!-- 6302057040 -->
<g id="node5" class="node">
<title>6302057040</title>
<polygon fill="lightgrey" stroke="black" points="232,-141 119,-141 119,-122 232,-122 232,-141"/>
<text text-anchor="middle" x="175.5" y="-129" font-family="monospace" font-size="10.00">SigmoidBackward0</text>
</g>
<!-- 6302057040&#45;&gt;6301908464 -->
<g id="edge3" class="edge">
<title>6302057040&#45;&gt;6301908464</title>
<path fill="none" stroke="black" d="M175.5,-121.75C175.5,-115.27 175.5,-106.16 175.5,-97.9"/>
<polygon fill="black" stroke="black" points="179,-97.96 175.5,-87.96 172,-97.96 179,-97.96"/>
</g>
<!-- 6302056992 -->
<g id="node6" class="node">
<title>6302056992</title>
<polygon fill="lightgrey" stroke="black" points="224,-202 123,-202 123,-183 224,-183 224,-202"/>
<text text-anchor="middle" x="173.5" y="-190" font-family="monospace" font-size="10.00">AddmmBackward0</text>
</g>
<!-- 6302056992&#45;&gt;6302057040 -->
<g id="edge4" class="edge">
<title>6302056992&#45;&gt;6302057040</title>
<path fill="none" stroke="black" d="M173.8,-182.54C174.07,-174.56 174.48,-162.61 174.83,-152.39"/>
<polygon fill="black" stroke="black" points="178.31,-152.79 175.16,-142.67 171.32,-152.55 178.31,-152.79"/>
</g>
<!-- 6302057808 -->
<g id="node7" class="node">
<title>6302057808</title>
<polygon fill="lightgrey" stroke="black" points="134,-269 33,-269 33,-250 134,-250 134,-269"/>
<text text-anchor="middle" x="83.5" y="-257" font-family="monospace" font-size="10.00">AccumulateGrad</text>
</g>
<!-- 6302057808&#45;&gt;6302056992 -->
<g id="edge5" class="edge">
<title>6302057808&#45;&gt;6302056992</title>
<path fill="none" stroke="black" d="M95.64,-249.73C110.13,-239.27 134.62,-221.58 152.27,-208.83"/>
<polygon fill="black" stroke="black" points="153.98,-211.91 160.04,-203.22 149.88,-206.24 153.98,-211.91"/>
</g>
<!-- 6298554656 -->
<g id="node8" class="node">
<title>6298554656</title>
<polygon fill="lightblue" stroke="black" points="110.5,-342 56.5,-342 56.5,-311 110.5,-311 110.5,-342"/>
<text text-anchor="middle" x="83.5" y="-318" font-family="monospace" font-size="10.00"> (2)</text>
</g>
<!-- 6298554656&#45;&gt;6302057808 -->
<g id="edge6" class="edge">
<title>6298554656&#45;&gt;6302057808</title>
<path fill="none" stroke="black" d="M83.5,-310.75C83.5,-301.9 83.5,-290.5 83.5,-280.81"/>
<polygon fill="black" stroke="black" points="87,-280.9 83.5,-270.9 80,-280.9 87,-280.9"/>
</g>
<!-- 6302058000 -->
<g id="node9" class="node">
<title>6302058000</title>
<polygon fill="lightgrey" stroke="black" points="229,-269 152,-269 152,-250 229,-250 229,-269"/>
<text text-anchor="middle" x="190.5" y="-257" font-family="monospace" font-size="10.00">TBackward0</text>
</g>
<!-- 6302058000&#45;&gt;6302056992 -->
<g id="edge7" class="edge">
<title>6302058000&#45;&gt;6302056992</title>
<path fill="none" stroke="black" d="M188.21,-249.73C185.76,-240.38 181.8,-225.25 178.61,-213.04"/>
<polygon fill="black" stroke="black" points="182.06,-212.38 176.14,-203.59 175.28,-214.15 182.06,-212.38"/>
</g>
<!-- 6302057760 -->
<g id="node10" class="node">
<title>6302057760</title>
<polygon fill="lightgrey" stroke="black" points="241,-336 140,-336 140,-317 241,-317 241,-336"/>
<text text-anchor="middle" x="190.5" y="-324" font-family="monospace" font-size="10.00">AccumulateGrad</text>
</g>
<!-- 6302057760&#45;&gt;6302058000 -->
<g id="edge8" class="edge">
<title>6302057760&#45;&gt;6302058000</title>
<path fill="none" stroke="black" d="M190.5,-316.73C190.5,-307.48 190.5,-292.57 190.5,-280.42"/>
<polygon fill="black" stroke="black" points="194,-280.64 190.5,-270.64 187,-280.64 194,-280.64"/>
</g>
<!-- 6298025824 -->
<g id="node11" class="node">
<title>6298025824</title>
<polygon fill="lightblue" stroke="black" points="220,-409 161,-409 161,-378 220,-378 220,-409"/>
<text text-anchor="middle" x="190.5" y="-385" font-family="monospace" font-size="10.00"> (2, 1)</text>
</g>
<!-- 6298025824&#45;&gt;6302057760 -->
<g id="edge9" class="edge">
<title>6298025824&#45;&gt;6302057760</title>
<path fill="none" stroke="black" d="M190.5,-377.75C190.5,-368.9 190.5,-357.5 190.5,-347.81"/>
<polygon fill="black" stroke="black" points="194,-347.9 190.5,-337.9 187,-347.9 194,-347.9"/>
</g>
<!-- 6302057856 -->
<g id="node12" class="node">
<title>6302057856</title>
<polygon fill="lightgrey" stroke="black" points="330,-141 253,-141 253,-122 330,-122 330,-141"/>
<text text-anchor="middle" x="291.5" y="-129" font-family="monospace" font-size="10.00">TBackward0</text>
</g>
<!-- 6302057856&#45;&gt;6301908464 -->
<g id="edge10" class="edge">
<title>6302057856&#45;&gt;6301908464</title>
<path fill="none" stroke="black" d="M271.82,-121.51C253.55,-113.16 226.09,-100.61 205.15,-91.05"/>
<polygon fill="black" stroke="black" points="206.81,-87.96 196.26,-86.99 203.9,-94.33 206.81,-87.96"/>
</g>
<!-- 6302057712 -->
<g id="node13" class="node">
<title>6302057712</title>
<polygon fill="lightgrey" stroke="black" points="343,-202 242,-202 242,-183 343,-183 343,-202"/>
<text text-anchor="middle" x="292.5" y="-190" font-family="monospace" font-size="10.00">AccumulateGrad</text>
</g>
<!-- 6302057712&#45;&gt;6302057856 -->
<g id="edge11" class="edge">
<title>6302057712&#45;&gt;6302057856</title>
<path fill="none" stroke="black" d="M292.35,-182.54C292.21,-174.56 292.01,-162.61 291.84,-152.39"/>
<polygon fill="black" stroke="black" points="295.34,-152.61 291.67,-142.67 288.34,-152.73 295.34,-152.61"/>
</g>
<!-- 6298269424 -->
<g id="node14" class="node">
<title>6298269424</title>
<polygon fill="lightblue" stroke="black" points="322,-275 263,-275 263,-244 322,-244 322,-275"/>
<text text-anchor="middle" x="292.5" y="-251" font-family="monospace" font-size="10.00"> (1, 2)</text>
</g>
<!-- 6298269424&#45;&gt;6302057712 -->
<g id="edge12" class="edge">
<title>6298269424&#45;&gt;6302057712</title>
<path fill="none" stroke="black" d="M292.5,-243.75C292.5,-234.9 292.5,-223.5 292.5,-213.81"/>
<polygon fill="black" stroke="black" points="296,-213.9 292.5,-203.9 289,-213.9 296,-213.9"/>
</g>
</g>
</svg>
